<svg width="48" height="48" viewBox="0 0 325 325" fill="none" version="1.1" xmlns="http://www.w3.org/2000/svg">
  <path fill-rule="evenodd" clip-rule="evenodd" d="M155.96183 306.19104c-.333.911-1.287 1.456-2.26 1.274-.981-.091-1.692-1.001-1.692-2.003-.045-36.164-.045-125.159-.045-125.159s-4.736-33.432 43.258-59.758c54.423-29.968998 98.752-44.267998 98.752-44.267998s18.664-10.84 27.018-1.367c8.346 9.474-20.68 37.255998-20.68 37.255998l-122.925 160.414s-13.81 13.844-21.426 33.611zm37.416-122.881 18.492-24.14c-12.64 8.108-18.393 18.763-18.636 19.219l.144 1.914z" fill="#fff" id="path1"/>
  <path fill-rule="evenodd" clip-rule="evenodd" d="M155.96183 306.19104c-.333.911-1.287 1.456-2.26 1.274-.981-.091-1.692-1.001-1.692-2.003-.045-36.164-.045-125.159-.045-125.159s-4.736-33.432 43.258-59.758c54.423-29.968998 98.752-44.267998 98.752-44.267998s18.664-10.84 27.018-1.367c8.346 9.474-20.68 37.255998-20.68 37.255998l-122.925 160.414s-13.81 13.844-21.426 33.611z" fill="#000091" id="path2"/>
  <path fill-rule="evenodd" clip-rule="evenodd" d="M130.18783 305.69604c-5.995-11.544-15.707-19.43-15.707-19.43l-94.860001-100.637s-22.3979994-17.428-15.9579994-23.372c6.4470004-5.943 20.8489994.857 20.8489994.857s34.209 8.971 76.206001 27.773c37.036 16.515 33.382 37.489 33.382 37.489s0 52.633-.056 76.463c0 .914-.66 1.771-1.591 2-.924.172-1.869-.286-2.265-1.143zm-38.912001-86.749 13.700001 14.572v-4.63c-1.486-1.428-6.766001-6.342-13.700001-9.942z" fill="#fff" id="path3"/>
  <path fill-rule="evenodd" clip-rule="evenodd" d="M130.18783 305.69604c.396.857 1.341 1.315 2.265 1.143.931-.229 1.591-1.086 1.591-2 .056-23.83.056-76.463.056-76.463s3.654-20.974-33.382-37.489c-41.997001-18.802-76.206001-27.773-76.206001-27.773s-14.401999-6.8-20.8489994-.857c-6.44 5.944 15.9579994 23.372 15.9579994 23.372l94.860001 100.637s9.712 7.886 15.707 19.43z" fill="#e1000f" id="path4"/>
  <path d="M134.19683 124.49704c-.106 0-.212 0-.317-.001-29.202-.175-52.734001-24.268-52.561001-53.813998.172-29.437 23.812001-53.182 52.865001-53.182.109 0 .212.001.32.001 29.202.175 52.732 24.268 52.56 53.814-.171 29.436998-23.812 53.181998-52.867 53.181998z" fill="#000091" id="path5"/>
</svg>